# xmcd CD database file
#
# Track frame offsets:
#	150
#	14190
#	29826
#	45030
#	58461
#	72283
#	85142
#	101137
#	114742
#	129778
#	143888
#	158609
#	170642
#	185037
#	198849
#	211163
#	223048
#	236574
#	250185
#	263028
#
# Disc length: 3691 seconds
#
# Revision: 0
# Processed by: cddbd v1.5.2PL0 Copyright (c) Steve Scherf et al.
# Submitted via: CDex 1.70beta2
#
DISCID=280e6914
DTITLE=Ray Ventura - L'aventure Sud-Américaine 1942-1944 Buenos-Aires - Rio De Janeiro
DYEAR=2001
DGENRE=Jazz
TTITLE0=Fantastico - déc 1942
TTITLE1=Insensiblement - juil. 1942
TTITLE2=Dernière Rèverie - juil. 1942
TTITLE3=Tiens, tiens, tiens - sept. 1942
TTITLE4=Tico tico tico no fuba - oct. 1942
TTITLE5=Rio De Janeiro - oct. 1942
TTITLE6=Maruska - déc. 1942
TTITLE7=Primera cita (Premier rendez-vous) - déc. 1942
TTITLE8=Te quiero mucho mas - mars 1943
TTITLE9=C'est la première fois - avril 1943
TTITLE10=As time goes by - juin 1943
TTITLE11=You'd be so nice to come home to (Como un angel) - juin 1943
TTITLE12=Romance carioca - juin 1943
TTITLE13=Chez moi - nov. 1943
TTITLE14=Apanhei-te cavaquinho - nov. 1943
TTITLE15=Sunday, monday or always - nov. 1943
TTITLE16=Os quindins de Yaya (Los pasteles de Yaya) - nov. 1943
TTITLE17=I'm gonna get lit up - Juil. 1944
TTITLE18=People will say we're in love - juil. 1944
TTITLE19=Cuando volamos a França - juil. 1944
EXTD=YEAR: 2001
EXTT0=
EXTT1=
EXTT2=
EXTT3=
EXTT4=
EXTT5=
EXTT6=
EXTT7=
EXTT8=
EXTT9=
EXTT10=
EXTT11=
EXTT12=
EXTT13=
EXTT14=
EXTT15=
EXTT16=
EXTT17=
EXTT18=
EXTT19=
PLAYORDER=
